<svg width="749" height="653" viewBox="0 0 749 653" fill="none" xmlns="http://www.w3.org/2000/svg">
<path d="M816 419.778C816 606.054 633.567 652.677 447.291 652.677C261.015 652.677 87 606.054 87 419.778C87 233.503 413.101 0 599.376 0C785.652 0 816 233.503 816 419.778Z" fill="#ECFCFF"/>
<path d="M137.042 80H84.0469V171.539H137.042V80Z" fill="#F5F5F5"/>
<path d="M82.2572 80H39.124V171.539H82.2572V80Z" fill="#F5F5F5"/>
<path d="M242.184 80H195.606V171.539H242.184V80Z" fill="#F5F5F5"/>
<path d="M82.2572 173.181H39.124V255.677H82.2572V173.181Z" fill="#F5F5F5"/>
<path d="M137.042 173.181H84.0469V255.677H137.042V173.181Z" fill="#F5F5F5"/>
<path d="M242.184 173.181H195.606V255.677H242.184V173.181Z" fill="#F5F5F5"/>
<path d="M193.817 173.181H143.486V255.677H193.817V173.181Z" fill="#F5F5F5"/>
<path d="M193.817 80H143.486V171.539H193.817V80Z" fill="#F5F5F5"/>
<path d="M156.187 284.064H49.8202C39.4622 284.064 31.0654 292.681 31.0654 303.311V303.946C31.0654 314.575 39.4622 323.192 49.8202 323.192H156.187C166.545 323.192 174.941 314.575 174.941 303.946V303.311C174.941 292.681 166.545 284.064 156.187 284.064Z" fill="#E0E0E0"/>
<path d="M62.1708 301.778C62.09 301.778 62.1708 300.922 61.7402 299.458C61.1859 297.406 59.9782 295.603 58.3095 294.336C57.1754 293.464 55.8573 292.877 54.4617 292.624C52.8649 292.337 51.2228 292.485 49.699 293.052C48.0147 293.685 46.553 294.819 45.5014 296.311C44.3647 297.9 43.7517 299.82 43.7517 301.792C43.7517 303.763 44.3647 305.684 45.5014 307.273C46.553 308.764 48.0147 309.899 49.699 310.532C51.2228 311.099 52.8649 311.247 54.4617 310.96C55.8573 310.706 57.1754 310.12 58.3095 309.247C59.9784 307.975 61.1857 306.168 61.7402 304.111C62.1304 302.648 62.09 301.792 62.1708 301.792C62.2062 301.997 62.2062 302.208 62.1708 302.413C62.1715 303.008 62.1037 303.602 61.9689 304.18C61.5627 306.018 60.6421 307.693 59.3202 309.001C57.9984 310.308 56.333 311.19 54.5289 311.539C53.1292 311.816 51.6871 311.772 50.3058 311.411C48.9246 311.049 47.6383 310.378 46.539 309.447C45.4398 308.516 44.5547 307.346 43.9471 306.023C43.3395 304.7 43.0244 303.255 43.0244 301.792C43.0244 300.329 43.3395 298.884 43.9471 297.561C44.5547 296.237 45.4398 295.068 46.539 294.137C47.6383 293.205 48.9246 292.535 50.3058 292.173C51.6871 291.811 53.1292 291.767 54.5289 292.044C56.333 292.393 57.9984 293.276 59.3202 294.583C60.6421 295.891 61.5627 297.566 61.9689 299.403C62.1037 299.982 62.1715 300.575 62.1708 301.171C62.2047 301.372 62.2047 301.577 62.1708 301.778V301.778Z" fill="white"/>
<path d="M69.1942 315.13C67.4362 314.28 65.7831 313.219 64.27 311.968C62.624 310.904 61.1066 309.643 59.7495 308.212C61.5113 309.055 63.1652 310.117 64.6736 311.374C66.3197 312.438 67.8371 313.699 69.1942 315.13V315.13Z" fill="white"/>
<path d="M555 498.692C555 498.899 444.122 499.051 307.387 499.051C170.652 499.051 59.7495 498.899 59.7495 498.692C59.7495 498.486 170.605 498.334 307.387 498.334C444.169 498.334 555 498.499 555 498.692Z" fill="#263238"/>
<path d="M512.58 279.607L512.485 458.322C512.478 468.644 508.478 478.54 501.364 485.836C494.249 493.132 484.603 497.23 474.546 497.23L37.9266 497.147C32.9392 497.147 28.0008 496.138 23.3941 494.177C18.7873 492.215 14.6028 489.341 11.0799 485.718C7.55706 482.095 4.7651 477.795 2.86387 473.063C0.962639 468.331 -0.0105293 463.261 8.59138e-05 458.143L0.107719 279.414C0.114853 269.093 4.11523 259.197 11.2296 251.901C18.3439 244.605 27.99 240.507 38.0477 240.507L474.653 240.603C479.641 240.603 484.579 241.613 489.186 243.574C493.792 245.535 497.977 248.409 501.5 252.032C505.023 255.655 507.815 259.956 509.716 264.687C511.617 269.419 512.59 274.489 512.58 279.607V279.607Z" fill="#263238"/>
<path d="M15.5525 279.663L15.5525 314.318C15.6054 316.598 16.5374 318.764 18.1439 320.34C19.7504 321.916 21.9005 322.774 24.1226 322.726H30.2442C32.4686 322.678 34.6206 323.538 36.2276 325.117C37.8345 326.696 38.7649 328.865 38.8143 331.148L38.8143 398.691C38.7614 400.971 37.8294 403.137 36.2229 404.713C34.6164 406.289 32.4663 407.147 30.2442 407.099H24.1092C21.8871 407.051 19.737 407.909 18.1305 409.485C16.5239 411.062 15.592 413.227 15.5391 415.508L15.5391 458.032C15.5373 461.613 16.2228 465.16 17.5565 468.469C18.8903 471.778 20.846 474.785 23.3121 477.318C25.7783 479.852 28.7065 481.862 31.9296 483.234C35.1527 484.606 38.6076 485.313 42.097 485.315L468.262 485.397C475.292 485.376 482.026 482.494 486.99 477.386C491.953 472.277 494.74 465.357 494.74 458.143L494.847 279.773C494.849 276.193 494.163 272.647 492.83 269.339C491.496 266.031 489.54 263.025 487.073 260.492C484.607 257.96 481.679 255.951 478.456 254.581C475.233 253.21 471.778 252.505 468.289 252.505L42.1239 252.422C38.6363 252.42 35.1825 253.123 31.9596 254.491C28.7368 255.859 25.8081 257.865 23.3407 260.395C20.8733 262.924 18.9156 265.928 17.5793 269.234C16.243 272.54 15.5543 276.084 15.5525 279.663V279.663Z" fill="white"/>
<path d="M256.996 276.556C256.644 274.996 256.526 273.39 256.646 271.793C256.646 271.02 256.646 270.288 256.646 269.653L256.956 269.984C256.082 270.044 255.205 269.932 254.373 269.653C255.207 269.383 256.083 269.275 256.956 269.335H257.252V269.667C257.252 270.302 257.252 271.047 257.252 271.807C257.394 273.394 257.307 274.994 256.996 276.556V276.556Z" fill="#E0E0E0"/>
<path d="M256.996 290.363C256.529 288.087 256.529 285.736 256.996 283.46C257.462 285.736 257.462 288.087 256.996 290.363Z" fill="#E0E0E0"/>
<path d="M256.996 304.169C256.529 301.893 256.529 299.542 256.996 297.266C257.462 299.542 257.462 301.893 256.996 304.169Z" fill="#E0E0E0"/>
<path d="M256.996 317.977C256.529 315.7 256.529 313.349 256.996 311.073C257.462 313.349 257.462 315.7 256.996 317.977Z" fill="#E0E0E0"/>
<path d="M256.996 331.783C256.529 329.507 256.529 327.156 256.996 324.88C257.462 327.156 257.462 329.507 256.996 331.783Z" fill="#E0E0E0"/>
<path d="M256.996 345.59C256.529 343.314 256.529 340.963 256.996 338.687C257.462 340.963 257.462 343.314 256.996 345.59V345.59Z" fill="#E0E0E0"/>
<path d="M256.996 359.397C256.529 357.121 256.529 354.77 256.996 352.494C257.462 354.77 257.462 357.121 256.996 359.397V359.397Z" fill="#E0E0E0"/>
<path d="M256.996 373.204C256.529 370.928 256.529 368.577 256.996 366.301C257.462 368.577 257.462 370.928 256.996 373.204Z" fill="#E0E0E0"/>
<path d="M256.996 387.01C256.529 384.734 256.529 382.383 256.996 380.106C257.462 382.383 257.462 384.734 256.996 387.01Z" fill="#E0E0E0"/>
<path d="M256.996 400.817C256.529 398.541 256.529 396.19 256.996 393.914C257.462 396.19 257.462 398.541 256.996 400.817V400.817Z" fill="#E0E0E0"/>
<path d="M256.996 414.624C256.529 412.348 256.529 409.997 256.996 407.721C257.462 409.997 257.462 412.348 256.996 414.624Z" fill="#E0E0E0"/>
<path d="M251.507 422.812C252.592 422.454 253.737 422.332 254.87 422.453C255.678 422.453 256.417 422.453 256.996 422.535L256.727 422.812C256.727 422.025 256.888 421.527 256.996 421.527C257.104 421.527 257.198 422.025 257.265 422.812V423.06H256.983C256.404 423.06 255.637 423.143 254.857 423.143C253.73 423.263 252.591 423.15 251.507 422.812V422.812Z" fill="#E0E0E0"/>
<path d="M238.053 422.813C240.271 422.335 242.562 422.335 244.78 422.813C242.562 423.29 240.271 423.29 238.053 422.813V422.813Z" fill="#E0E0E0"/>
<path d="M224.599 422.813C226.817 422.335 229.108 422.335 231.326 422.813C229.108 423.29 226.817 423.29 224.599 422.813V422.813Z" fill="#E0E0E0"/>
<path d="M211.145 422.813C213.363 422.335 215.654 422.335 217.872 422.813C215.654 423.29 213.363 423.29 211.145 422.813V422.813Z" fill="#E0E0E0"/>
<path d="M197.691 422.813C199.909 422.335 202.2 422.335 204.418 422.813C202.2 423.29 199.909 423.29 197.691 422.813V422.813Z" fill="#E0E0E0"/>
<path d="M189.673 417.234C190.022 418.347 190.141 419.523 190.023 420.686C190.023 421.486 190.023 422.232 190.023 422.812L189.74 422.522C190.534 422.591 191.086 422.687 191.086 422.812C191.086 422.936 190.588 423.019 189.74 423.088H189.498V422.784C189.498 422.204 189.418 421.403 189.418 420.658C189.281 419.51 189.367 418.346 189.673 417.234V417.234Z" fill="#E0E0E0"/>
<path d="M189.673 403.427C190.139 405.703 190.139 408.054 189.673 410.33C189.207 408.054 189.207 405.703 189.673 403.427V403.427Z" fill="#E0E0E0"/>
<path d="M189.673 389.62C190.139 391.896 190.139 394.247 189.673 396.523C189.207 394.247 189.207 391.896 189.673 389.62Z" fill="#E0E0E0"/>
<path d="M189.673 375.813C190.139 378.089 190.139 380.44 189.673 382.716C189.207 380.44 189.207 378.089 189.673 375.813Z" fill="#E0E0E0"/>
<path d="M189.673 362.006C190.139 364.283 190.139 366.633 189.673 368.91C189.207 366.633 189.207 364.283 189.673 362.006V362.006Z" fill="#E0E0E0"/>
<path d="M189.673 348.2C190.139 350.476 190.139 352.827 189.673 355.103C189.207 352.827 189.207 350.476 189.673 348.2Z" fill="#E0E0E0"/>
<path d="M189.673 334.393C190.139 336.669 190.139 339.02 189.673 341.296C189.207 339.02 189.207 336.669 189.673 334.393Z" fill="#E0E0E0"/>
<path d="M189.673 320.586C190.139 322.862 190.139 325.213 189.673 327.489C189.207 325.213 189.207 322.862 189.673 320.586Z" fill="#E0E0E0"/>
<path d="M189.673 306.779C190.139 309.055 190.139 311.406 189.673 313.682C189.207 311.406 189.207 309.055 189.673 306.779Z" fill="#E0E0E0"/>
<path d="M189.673 292.973C190.139 295.249 190.139 297.6 189.673 299.876C189.207 297.6 189.207 295.249 189.673 292.973Z" fill="#E0E0E0"/>
<path d="M189.673 279.166C190.139 281.442 190.139 283.793 189.673 286.069C189.207 283.793 189.207 281.442 189.673 279.166Z" fill="#E0E0E0"/>
<path d="M193.871 269.652C192.786 270.01 191.64 270.132 190.507 270.011H189.673L190.023 269.652C190.099 270.538 189.98 271.43 189.673 272.262C189.375 271.428 189.26 270.537 189.337 269.652V269.321H190.561C191.675 269.206 192.8 269.319 193.871 269.652V269.652Z" fill="#E0E0E0"/>
<path d="M207.325 269.653C205.107 270.131 202.816 270.131 200.598 269.653C202.816 269.176 205.107 269.176 207.325 269.653Z" fill="#E0E0E0"/>
<path d="M220.778 269.653C218.56 270.131 216.269 270.131 214.051 269.653C216.269 269.176 218.56 269.176 220.778 269.653V269.653Z" fill="#E0E0E0"/>
<path d="M234.232 269.653C232.014 270.131 229.723 270.131 227.505 269.653C229.723 269.176 232.014 269.176 234.232 269.653Z" fill="#E0E0E0"/>
<path d="M247.686 269.653C245.468 270.131 243.178 270.131 240.959 269.653C243.178 269.176 245.468 269.176 247.686 269.653V269.653Z" fill="#E0E0E0"/>
<path d="M227.196 293.429C228.05 293.429 228.885 293.688 229.595 294.175C230.305 294.662 230.859 295.355 231.186 296.164C231.513 296.974 231.598 297.865 231.431 298.725C231.265 299.585 230.853 300.375 230.249 300.994C229.646 301.614 228.876 302.036 228.038 302.207C227.2 302.378 226.332 302.291 225.543 301.955C224.754 301.62 224.079 301.052 223.605 300.323C223.13 299.594 222.877 298.737 222.877 297.861C222.875 297.278 222.986 296.701 223.202 296.162C223.419 295.624 223.737 295.134 224.138 294.723C224.539 294.311 225.016 293.984 225.541 293.762C226.066 293.54 226.628 293.427 227.196 293.429Z" fill="#263238"/>
<path d="M134.835 406.561C134.487 405.447 134.368 404.272 134.486 403.109C135.185 403.827 134.674 403.302 134.822 403.468H134.163C133.961 403.468 133.759 403.468 133.53 403.468C133.302 403.468 132.764 403.468 132.468 403.385C131.862 403.385 131.485 403.233 131.485 403.136C131.485 403.04 131.862 402.943 132.468 402.874C132.764 402.874 133.127 402.874 133.53 402.874H134.163H134.822C134.983 403.026 134.486 402.515 135.185 403.233C135.279 404.355 135.16 405.485 134.835 406.561V406.561Z" fill="#E0E0E0"/>
<path d="M134.835 420.34C134.366 418.064 134.366 415.713 134.835 413.437C135.303 415.713 135.303 418.064 134.835 420.34Z" fill="#E0E0E0"/>
<path d="M134.835 434.119C134.366 431.843 134.366 429.492 134.835 427.216C135.303 429.492 135.303 431.843 134.835 434.119Z" fill="#E0E0E0"/>
<path d="M134.835 447.898C134.366 445.622 134.366 443.271 134.835 440.995C135.303 443.271 135.303 445.622 134.835 447.898Z" fill="#E0E0E0"/>
<path d="M134.835 461.677C134.366 459.401 134.366 457.05 134.835 454.774C135.303 457.05 135.303 459.401 134.835 461.677Z" fill="#E0E0E0"/>
<path d="M131.471 471.95C132.557 471.6 133.701 471.478 134.834 471.591L134.484 471.95V471.26V470.611V469.506C134.552 468.885 134.632 468.498 134.74 468.498C134.848 468.498 134.915 468.885 134.982 469.506L135.063 470.611V471.991L134.713 472.35C133.617 472.441 132.515 472.305 131.471 471.95Z" fill="#E0E0E0"/>
<path d="M118.744 471.951C119.766 471.601 120.848 471.479 121.919 471.593C122.995 471.48 124.082 471.602 125.108 471.951C124.083 472.308 122.995 472.43 121.919 472.309C120.848 472.431 119.764 472.309 118.744 471.951Z" fill="#E0E0E0"/>
<path d="M106.003 471.95C108.103 471.471 110.28 471.471 112.38 471.95C110.28 472.429 108.103 472.429 106.003 471.95V471.95Z" fill="#E0E0E0"/>
<path d="M93.2759 471.951C94.3021 471.602 95.3888 471.48 96.4644 471.593C97.5356 471.479 98.6182 471.601 99.6395 471.951C98.6198 472.309 97.5356 472.431 96.4644 472.309C95.3888 472.43 94.3004 472.308 93.2759 471.951V471.951Z" fill="#E0E0E0"/>
<path d="M80.5488 471.95C81.5751 471.601 82.6618 471.479 83.7374 471.592C84.8264 471.47 85.9281 471.592 86.9664 471.95C85.9466 472.308 84.8625 472.43 83.7912 472.309C82.6979 472.438 81.5902 472.315 80.5488 471.95V471.95Z" fill="#E0E0E0"/>
<path d="M70.821 468.567C71.1694 469.68 71.2885 470.856 71.1708 472.019L70.821 471.66H72.1664C72.57 471.66 72.9332 471.66 73.2292 471.743C73.8346 471.743 74.2114 471.894 74.2114 471.991C74.2114 472.088 73.8346 472.184 73.2292 472.253C72.9332 472.253 72.57 472.253 72.1664 472.253H71.534H70.821L70.4712 471.894C70.3771 470.772 70.4959 469.642 70.821 468.567V468.567Z" fill="#E0E0E0"/>
<path d="M70.821 454.788C71.2893 457.065 71.2893 459.416 70.821 461.692C70.3526 459.416 70.3526 457.065 70.821 454.788Z" fill="#E0E0E0"/>
<path d="M70.821 441.009C71.2893 443.285 71.2893 445.636 70.821 447.912C70.3526 445.636 70.3526 443.285 70.821 441.009Z" fill="#E0E0E0"/>
<path d="M70.821 427.23C71.2893 429.506 71.2893 431.857 70.821 434.133C70.3526 431.857 70.3526 429.506 70.821 427.23Z" fill="#E0E0E0"/>
<path d="M70.821 413.45C71.2893 415.726 71.2893 418.077 70.821 420.354C70.3526 418.077 70.3526 415.726 70.821 413.45Z" fill="#E0E0E0"/>
<path d="M74.1849 403.109C73.0985 403.459 71.9547 403.581 70.8214 403.468L71.1712 403.109V403.799V404.448L71.1039 405.553C71.0367 406.174 70.9559 406.561 70.8483 406.561C70.7407 406.561 70.6734 406.174 70.6061 405.553L70.5254 404.448V403.067L70.8752 402.708C71.9935 402.609 73.1199 402.745 74.1849 403.109V403.109Z" fill="#E0E0E0"/>
<path d="M86.9658 403.111C85.9444 403.46 84.8619 403.583 83.7906 403.469C82.715 403.582 81.6283 403.46 80.6021 403.111C81.6266 402.754 82.715 402.631 83.7906 402.752C84.8619 402.631 85.9461 402.753 86.9658 403.111V403.111Z" fill="#E0E0E0"/>
<path d="M99.6395 403.111C98.6182 403.46 97.5356 403.583 96.4644 403.469C95.3888 403.582 94.3021 403.46 93.2759 403.111C94.3004 402.754 95.3888 402.631 96.4644 402.752C97.5356 402.631 98.6198 402.753 99.6395 403.111V403.111Z" fill="#E0E0E0"/>
<path d="M112.38 403.11C110.28 403.588 108.103 403.588 106.003 403.11C108.103 402.632 110.28 402.632 112.38 403.11V403.11Z" fill="#E0E0E0"/>
<path d="M125.108 403.111C124.082 403.46 122.995 403.582 121.919 403.469C120.848 403.583 119.766 403.46 118.744 403.111C119.764 402.753 120.848 402.631 121.919 402.752C122.995 402.631 124.083 402.754 125.108 403.111Z" fill="#E0E0E0"/>
<path d="M177.47 268.396C177.121 267.283 177.002 266.108 177.12 264.945C177.819 265.663 177.308 265.152 177.456 265.304H176.797H176.165C175.761 265.304 175.398 265.304 175.102 265.235C174.496 265.166 174.12 265.069 174.12 264.972C174.12 264.876 174.496 264.779 175.102 264.724C175.398 264.724 175.761 264.724 176.165 264.641C176.568 264.558 176.595 264.641 176.797 264.641H177.456C177.618 264.807 177.12 264.282 177.819 265C177.922 266.145 177.803 267.299 177.47 268.396Z" fill="#E0E0E0"/>
<path d="M177.471 282.521C177.004 280.194 177.004 277.793 177.471 275.466C177.937 277.793 177.937 280.194 177.471 282.521Z" fill="#E0E0E0"/>
<path d="M177.47 296.604C177.004 294.271 177.004 291.867 177.47 289.534C177.937 291.867 177.937 294.271 177.47 296.604V296.604Z" fill="#E0E0E0"/>
<path d="M177.47 310.783C177.004 308.451 177.004 306.046 177.47 303.714C177.937 306.046 177.937 308.451 177.47 310.783V310.783Z" fill="#E0E0E0"/>
<path d="M177.47 324.907C177.004 322.575 177.004 320.17 177.47 317.838C177.937 320.17 177.937 322.575 177.47 324.907V324.907Z" fill="#E0E0E0"/>
<path d="M177.47 339.032C177.004 336.7 177.004 334.295 177.47 331.963C177.937 334.295 177.937 336.7 177.47 339.032V339.032Z" fill="#E0E0E0"/>
<path d="M177.471 353.211C177.004 350.884 177.004 348.484 177.471 346.156C177.937 348.484 177.937 350.884 177.471 353.211Z" fill="#E0E0E0"/>
<path d="M177.471 367.281C177.004 364.953 177.004 362.553 177.471 360.225C177.937 362.553 177.937 364.953 177.471 367.281Z" fill="#E0E0E0"/>
<path d="M177.47 381.418C177.004 379.086 177.004 376.681 177.47 374.349C177.937 376.681 177.937 379.086 177.47 381.418V381.418Z" fill="#E0E0E0"/>
<path d="M174.106 391.871C175.193 391.519 176.337 391.397 177.47 391.512L177.107 391.871V391.18V390.532L177.174 389.427C177.174 388.806 177.322 388.419 177.43 388.419C177.537 388.419 177.604 388.806 177.672 389.427L177.752 390.532V391.912L177.403 392.271C176.289 392.371 175.167 392.234 174.106 391.871V391.871Z" fill="#E0E0E0"/>
<path d="M160.707 391.871C162.925 391.389 165.216 391.389 167.434 391.871C165.216 392.353 162.925 392.353 160.707 391.871V391.871Z" fill="#E0E0E0"/>
<path d="M147.32 391.871C149.537 391.389 151.829 391.389 154.047 391.871C151.829 392.353 149.537 392.353 147.32 391.871V391.871Z" fill="#E0E0E0"/>
<path d="M133.933 391.871C136.151 391.389 138.442 391.389 140.66 391.871C138.442 392.353 136.151 392.353 133.933 391.871V391.871Z" fill="#E0E0E0"/>
<path d="M120.601 391.871C122.818 391.389 125.11 391.389 127.328 391.871C125.11 392.353 122.818 392.353 120.601 391.871V391.871Z" fill="#E0E0E0"/>
<path d="M107.146 391.871C109.364 391.389 111.656 391.389 113.873 391.871C111.656 392.353 109.364 392.353 107.146 391.871V391.871Z" fill="#E0E0E0"/>
<path d="M93.7734 391.871C95.9911 391.389 98.2827 391.389 100.5 391.871C98.2827 392.353 95.9911 392.353 93.7734 391.871V391.871Z" fill="#E0E0E0"/>
<path d="M80.3867 391.871C82.6044 391.389 84.896 391.389 87.1137 391.871C84.896 392.353 82.6044 392.353 80.3867 391.871V391.871Z" fill="#E0E0E0"/>
<path d="M70.337 388.474C70.6779 389.589 70.7969 390.763 70.6868 391.926L70.337 391.567H71.6824C72.086 391.567 72.4492 391.567 72.7452 391.65C73.3641 391.65 73.7408 391.801 73.7408 391.898C73.7408 391.995 73.3641 392.091 72.7452 392.16C72.4492 392.16 72.086 392.16 71.6824 392.229H71.05H70.3908L70.041 391.871C69.9133 390.729 70.014 389.574 70.337 388.474V388.474Z" fill="#E0E0E0"/>
<path d="M70.3372 374.349C70.8036 376.681 70.8036 379.086 70.3372 381.418C69.8707 379.086 69.8707 376.681 70.3372 374.349Z" fill="#E0E0E0"/>
<path d="M70.3368 360.225C70.8033 362.553 70.8033 364.953 70.3368 367.281C69.8702 364.953 69.8702 362.553 70.3368 360.225Z" fill="#E0E0E0"/>
<path d="M70.3368 346.101C70.8033 348.428 70.8033 350.829 70.3368 353.156C69.8702 350.829 69.8702 348.428 70.3368 346.101Z" fill="#E0E0E0"/>
<path d="M70.3372 331.963C70.8036 334.295 70.8036 336.7 70.3372 339.032C69.8707 336.7 69.8707 334.295 70.3372 331.963Z" fill="#E0E0E0"/>
<path d="M70.3372 317.838C70.8036 320.17 70.8036 322.575 70.3372 324.907C69.8707 322.575 69.8707 320.17 70.3372 317.838Z" fill="#E0E0E0"/>
<path d="M70.3372 303.714C70.8036 306.046 70.8036 308.451 70.3372 310.783C69.8707 308.451 69.8707 306.046 70.3372 303.714V303.714Z" fill="#E0E0E0"/>
<path d="M70.3372 289.59C70.8036 291.922 70.8036 294.327 70.3372 296.659C69.8707 294.327 69.8707 291.922 70.3372 289.59Z" fill="#E0E0E0"/>
<path d="M70.3368 275.466C70.8033 277.793 70.8033 280.194 70.3368 282.521C69.8702 280.194 69.8702 277.793 70.3368 275.466Z" fill="#E0E0E0"/>
<path d="M73.7001 264.944C72.6153 265.302 71.4699 265.424 70.3366 265.303L70.6864 264.944V266.325L70.6057 267.43C70.6057 268.051 70.4577 268.438 70.3635 268.438C70.2694 268.438 70.1752 268.051 70.1079 267.43V266.325V265.69V264.986L70.4577 264.627C71.5483 264.517 72.6494 264.625 73.7001 264.944Z" fill="#E0E0E0"/>
<path d="M87.0873 264.946C84.8696 265.428 82.578 265.428 80.3604 264.946C82.578 264.464 84.8696 264.464 87.0873 264.946V264.946Z" fill="#E0E0E0"/>
<path d="M100.42 264.946C98.2027 265.428 95.911 265.428 93.6934 264.946C95.911 264.464 98.2027 264.464 100.42 264.946V264.946Z" fill="#E0E0E0"/>
<path d="M113.873 264.946C111.656 265.428 109.364 265.428 107.146 264.946C109.364 264.464 111.656 264.464 113.873 264.946V264.946Z" fill="#E0E0E0"/>
<path d="M127.246 264.946C125.029 265.428 122.737 265.428 120.52 264.946C122.737 264.464 125.029 264.464 127.246 264.946V264.946Z" fill="#E0E0E0"/>
<path d="M140.634 264.946C138.416 265.428 136.124 265.428 133.907 264.946C136.124 264.464 138.416 264.464 140.634 264.946V264.946Z" fill="#E0E0E0"/>
<path d="M154.02 264.946C151.803 265.428 149.511 265.428 147.293 264.946C149.511 264.464 151.803 264.464 154.02 264.946V264.946Z" fill="#E0E0E0"/>
<path d="M167.407 264.946C165.189 265.428 162.897 265.428 160.68 264.946C162.897 264.464 165.189 264.464 167.407 264.946V264.946Z" fill="#E0E0E0"/>
<path d="M473.308 275.134C472.841 272.858 472.841 270.507 473.308 268.23C473.774 270.507 473.774 272.858 473.308 275.134V275.134Z" fill="#E0E0E0"/>
<path d="M473.308 288.94C472.841 286.664 472.841 284.313 473.308 282.037C473.774 284.313 473.774 286.664 473.308 288.94V288.94Z" fill="#E0E0E0"/>
<path d="M473.308 302.748C472.841 300.471 472.841 298.12 473.308 295.844C473.774 298.12 473.774 300.471 473.308 302.748Z" fill="#E0E0E0"/>
<path d="M473.308 316.555C472.841 314.278 472.841 311.928 473.308 309.651C473.774 311.928 473.774 314.278 473.308 316.555Z" fill="#E0E0E0"/>
<path d="M473.308 330.361C472.841 328.085 472.841 325.734 473.308 323.457C473.774 325.734 473.774 328.085 473.308 330.361Z" fill="#E0E0E0"/>
<path d="M473.308 344.168C472.841 341.892 472.841 339.541 473.308 337.265C473.774 339.541 473.774 341.892 473.308 344.168Z" fill="#E0E0E0"/>
<path d="M473.308 357.975C472.841 355.699 472.841 353.348 473.308 351.072C473.774 353.348 473.774 355.699 473.308 357.975Z" fill="#E0E0E0"/>
<path d="M473.308 371.781C472.841 369.505 472.841 367.154 473.308 364.878C473.774 367.154 473.774 369.505 473.308 371.781V371.781Z" fill="#E0E0E0"/>
<path d="M473.308 385.589C472.841 383.313 472.841 380.962 473.308 378.685C473.774 380.962 473.774 383.313 473.308 385.589V385.589Z" fill="#E0E0E0"/>
<path d="M473.308 399.395C472.841 397.118 472.841 394.767 473.308 392.491C473.774 394.767 473.774 397.118 473.308 399.395Z" fill="#E0E0E0"/>
<path d="M473.308 413.202C472.841 410.925 472.841 408.575 473.308 406.298C473.774 408.575 473.774 410.925 473.308 413.202V413.202Z" fill="#E0E0E0"/>
<path d="M473.308 427.009C472.841 424.733 472.841 422.382 473.308 420.106C473.774 422.382 473.774 424.733 473.308 427.009V427.009Z" fill="#E0E0E0"/>
<path d="M473.308 440.815C472.841 438.539 472.841 436.188 473.308 433.912C473.774 436.188 473.774 438.539 473.308 440.815Z" fill="#E0E0E0"/>
<path d="M473.308 454.622C472.841 452.346 472.841 449.995 473.308 447.719C473.774 449.995 473.774 452.346 473.308 454.622Z" fill="#E0E0E0"/>
<path d="M467.093 462.051C468.178 461.693 469.323 461.571 470.456 461.692C471.41 461.679 472.363 461.734 473.309 461.858L473.134 462.051C473.134 461.72 473.241 461.526 473.309 461.526C473.376 461.526 473.443 461.72 473.497 462.051V462.203H473.282C472.337 462.339 471.383 462.399 470.429 462.382C469.307 462.5 468.172 462.388 467.093 462.051V462.051Z" fill="#E0E0E0"/>
<path d="M453.638 462.051C455.856 461.573 458.147 461.573 460.365 462.051C458.147 462.529 455.856 462.529 453.638 462.051V462.051Z" fill="#E0E0E0"/>
<path d="M440.184 462.051C442.402 461.573 444.693 461.573 446.911 462.051C444.693 462.529 442.402 462.529 440.184 462.051V462.051Z" fill="#E0E0E0"/>
<path d="M427.712 461.029C427.807 461.029 427.901 461.416 427.955 462.051L427.712 461.789C428.504 461.715 429.299 461.683 430.094 461.692C431.227 461.571 432.372 461.693 433.457 462.051C432.371 462.401 431.227 462.523 430.094 462.41C429.299 462.415 428.504 462.379 427.712 462.299H427.443V462.078C427.524 461.416 427.618 461.029 427.712 461.029Z" fill="#E0E0E0"/>
<path d="M427.713 447.222C428.179 449.498 428.179 451.849 427.713 454.125C427.246 451.849 427.246 449.498 427.713 447.222Z" fill="#E0E0E0"/>
<path d="M427.713 433.415C428.179 435.692 428.179 438.043 427.713 440.319C427.246 438.043 427.246 435.692 427.713 433.415Z" fill="#E0E0E0"/>
<path d="M427.713 419.609C428.179 421.885 428.179 424.236 427.713 426.512C427.246 424.236 427.246 421.885 427.713 419.609V419.609Z" fill="#E0E0E0"/>
<path d="M427.713 405.801C428.179 408.077 428.179 410.428 427.713 412.705C427.246 410.428 427.246 408.077 427.713 405.801Z" fill="#E0E0E0"/>
<path d="M427.713 391.995C428.179 394.271 428.179 396.622 427.713 398.898C427.246 396.622 427.246 394.271 427.713 391.995Z" fill="#E0E0E0"/>
<path d="M427.713 378.188C428.179 380.465 428.179 382.816 427.713 385.092C427.246 382.816 427.246 380.465 427.713 378.188V378.188Z" fill="#E0E0E0"/>
<path d="M427.713 364.381C428.179 366.657 428.179 369.008 427.713 371.285C427.246 369.008 427.246 366.657 427.713 364.381Z" fill="#E0E0E0"/>
<path d="M427.713 350.575C428.179 352.851 428.179 355.202 427.713 357.479C427.246 355.202 427.246 352.851 427.713 350.575V350.575Z" fill="#E0E0E0"/>
<path d="M427.713 336.768C428.179 339.044 428.179 341.395 427.713 343.671C427.246 341.395 427.246 339.044 427.713 336.768Z" fill="#E0E0E0"/>
<path d="M427.713 322.961C428.179 325.237 428.179 327.588 427.713 329.864C427.246 327.588 427.246 325.237 427.713 322.961Z" fill="#E0E0E0"/>
<path d="M427.713 309.155C428.179 311.431 428.179 313.782 427.713 316.058C427.246 313.782 427.246 311.431 427.713 309.155Z" fill="#E0E0E0"/>
<path d="M427.713 295.347C428.179 297.623 428.179 299.974 427.713 302.25C427.246 299.974 427.246 297.623 427.713 295.347Z" fill="#E0E0E0"/>
<path d="M427.713 281.54C428.179 283.816 428.179 286.167 427.713 288.443C427.246 286.167 427.246 283.816 427.713 281.54Z" fill="#E0E0E0"/>
<path d="M428.197 268.231C428.197 268.3 428.022 268.355 427.712 268.41L427.887 268.231C428.021 269.21 428.079 270.197 428.062 271.186C428.174 272.349 428.055 273.523 427.712 274.637C427.37 273.523 427.251 272.349 427.362 271.186C427.345 270.197 427.404 269.21 427.537 268.231V268.024H427.685C428.022 268.107 428.197 268.162 428.197 268.231Z" fill="#E0E0E0"/>
<path d="M441.651 268.231C439.433 268.71 437.142 268.71 434.924 268.231C437.142 267.752 439.433 267.752 441.651 268.231Z" fill="#E0E0E0"/>
<path d="M455.104 268.231C452.886 268.71 450.596 268.71 448.377 268.231C450.596 267.752 452.886 267.752 455.104 268.231Z" fill="#E0E0E0"/>
<path d="M468.559 268.231C466.341 268.71 464.05 268.71 461.832 268.231C464.05 267.752 466.341 267.752 468.559 268.231Z" fill="#E0E0E0"/>
<path d="M340.883 382.041C336.476 382.675 331.343 383.986 328.672 385.653C326.255 387.161 326.572 391.603 328.291 393.8C330.103 396.12 332.236 395.996 334.808 394.783C336.496 393.986 338.528 392.213 340.628 390.221L340.807 385.023L340.883 382.041ZM467.509 384.132C465.038 382.59 460.459 381.354 456.302 380.674L456.744 388.37L456.847 389.902C458.481 391.382 460.036 392.629 461.373 393.261C463.945 394.478 466.074 394.599 467.89 392.279C469.609 390.082 469.927 385.64 467.509 384.132ZM344.117 474.623C340.871 480.546 349.355 485.425 353.753 481.317C357.347 477.961 360.184 475.114 366.357 474.184C361.629 472.187 357.462 469.694 353.92 466.79C349.598 468.525 346.1 471.006 344.117 474.623ZM442.481 479.695C446.117 484.524 455.151 480.138 452.51 473.907C450.775 469.816 447.496 466.416 443.392 464.375C440.704 466.95 437.511 469.344 433.737 471.429C437.914 473.46 439.961 476.348 442.481 479.695Z" fill="#F6D2A2" stroke="black" stroke-width="1.96391" stroke-miterlimit="10" stroke-linejoin="round"/>
<path d="M449.828 480.748C449.82 479.048 449.399 475.587 446.908 473.245M327.604 392.656C328.703 391.845 329.478 390.965 331.487 389.918L327.604 392.656ZM468.575 391.134C467.477 390.324 466.702 389.444 464.694 388.397L468.575 391.134ZM345.995 481.293C346.291 479.619 347.181 476.805 349.849 474.37L345.995 481.293Z" stroke="black" stroke-width="1.96391" stroke-miterlimit="10" stroke-linecap="round" stroke-linejoin="round"/>
<path d="M339.472 308.838C339.471 307.707 339.908 306.623 340.687 305.823C341.465 305.023 342.521 304.573 343.623 304.572C344.967 304.572 346.159 305.231 346.917 306.25C348.752 303.174 350.964 300.513 353.478 298.228C352.232 296.991 350.209 296.087 347.033 295.65C336.804 294.239 331.576 299.425 330.382 306.375C329.23 313.082 332.744 320.285 340.596 322.158C341.407 318.884 342.399 315.88 343.545 313.1C341.289 313.056 339.472 311.166 339.472 308.838V308.838Z" fill="#72CDDC" stroke="black" stroke-width="1.96391" stroke-miterlimit="10" stroke-linejoin="round"/>
<path d="M343.623 304.572C341.33 304.572 339.472 306.482 339.472 308.838C339.472 311.167 341.288 313.057 343.544 313.1C344.361 311.117 345.257 309.246 346.217 307.475C346.443 307.059 346.678 306.652 346.917 306.25C346.158 305.232 344.967 304.572 343.623 304.572V304.572Z" fill="black"/>
<path d="M462.324 303.636C461.13 296.685 455.903 291.499 445.674 292.911C442.128 293.4 440.019 294.466 438.822 295.935C441.084 297.94 443.189 300.244 445.171 302.872L445.453 303.256C446.21 302.209 447.418 301.531 448.783 301.531C451.076 301.531 452.934 303.442 452.934 305.797C452.934 307.86 451.506 309.585 449.609 309.978C451.018 312.778 452.161 315.793 453.075 319.154C460.244 316.94 463.425 310.06 462.321 303.636H462.324Z" fill="#72CDDC" stroke="black" stroke-width="1.96391" stroke-miterlimit="10" stroke-linejoin="round"/>
<path d="M452.937 305.796C452.938 304.666 452.501 303.581 451.722 302.781C450.944 301.981 449.888 301.531 448.786 301.53C447.42 301.53 446.212 302.211 445.456 303.255C447.042 305.4 448.423 307.611 449.612 309.974C451.509 309.58 452.937 307.859 452.937 305.793V305.796Z" fill="black"/>
<path d="M445.456 303.257L445.174 302.872C443.192 300.245 441.087 297.941 438.825 295.936C429.008 287.237 416.231 284.17 397.734 284.737C381.696 285.227 364.634 288.086 353.478 298.228C350.964 300.513 348.752 303.17 346.917 306.251C346.676 306.654 346.442 307.062 346.217 307.475C345.227 309.299 344.335 311.177 343.545 313.1C342.399 315.881 341.403 318.884 340.596 322.158C339.026 328.504 338.137 335.862 338.138 344.559C338.138 359.818 341.059 367.389 340.883 382.046L340.807 385.028L340.628 390.226C340.083 408.18 340.278 426.016 340.134 438.246C340.002 449.472 344.959 459.445 353.919 466.791C357.461 469.699 361.629 472.189 366.356 474.185C374.63 477.68 384.614 479.657 395.955 479.657C412.514 479.657 424.767 476.394 433.737 471.43C437.512 469.341 440.704 466.95 443.392 464.375C450.1 457.949 453.661 450.371 455.252 443.449C459.031 427.044 458.535 415.023 456.843 389.907L456.74 388.375L456.299 380.679C455.728 368.054 456.32 362.315 456.141 347.906C455.988 335.644 455.088 326.553 453.075 319.153C452.16 315.792 451.018 312.778 449.609 309.977C448.423 307.613 447.039 305.401 445.452 303.257H445.456Z" fill="#72CDDC" stroke="black" stroke-width="1.96391" stroke-miterlimit="10" stroke-linejoin="round"/>
<path d="M373.421 332.577C383.41 332.577 391.507 324.539 391.507 314.625C391.507 304.71 383.41 296.672 373.421 296.672C363.432 296.672 355.334 304.71 355.334 314.625C355.334 324.539 363.432 332.577 373.421 332.577Z" fill="white" stroke="black" stroke-width="1.96391" stroke-linejoin="round"/>
<path d="M363.933 321.927C367.372 321.927 370.16 319.066 370.16 315.537C370.16 312.008 367.372 309.147 363.933 309.147C360.494 309.147 357.707 312.008 357.707 315.537C357.707 319.066 360.494 321.927 363.933 321.927Z" fill="black"/>
<path d="M366.601 318.885C367.584 318.885 368.38 318.068 368.38 317.06C368.38 316.051 367.584 315.234 366.601 315.234C365.619 315.234 364.822 316.051 364.822 317.06C364.822 318.068 365.619 318.885 366.601 318.885Z" fill="white"/>
<path d="M418.785 330.448C428.774 330.448 436.872 322.41 436.872 312.496C436.872 302.581 428.774 294.543 418.785 294.543C408.796 294.543 400.699 302.581 400.699 312.496C400.699 322.41 408.796 330.448 418.785 330.448Z" fill="white" stroke="black" stroke-width="1.96391" stroke-linejoin="round"/>
<path d="M409.298 319.797C412.737 319.797 415.524 316.936 415.524 313.407C415.524 309.878 412.737 307.018 409.298 307.018C405.859 307.018 403.071 309.878 403.071 313.407C403.071 316.936 405.859 319.797 409.298 319.797Z" fill="black"/>
<path d="M411.966 316.755C412.949 316.755 413.745 315.938 413.745 314.93C413.745 313.921 412.949 313.104 411.966 313.104C410.984 313.104 410.187 313.921 410.187 314.93C410.187 315.938 410.984 316.755 411.966 316.755Z" fill="white"/>
<path d="M396.761 341.248C393.209 341.312 392.676 342.939 389.617 343.499L389.234 351.24C388.938 358.035 397.338 356.514 397.338 352.457V341.256C397.146 341.248 396.954 341.246 396.761 341.249V341.248Z" fill="white" stroke="black" stroke-width="1.96391" stroke-miterlimit="10" stroke-linejoin="round"/>
<path d="M397.338 352.457C397.338 356.514 405.739 358.035 405.443 351.24L405.047 343.344C401.193 343.164 400.727 341.379 397.338 341.255V352.456V352.457Z" fill="white" stroke="black" stroke-width="1.96391" stroke-miterlimit="10" stroke-linejoin="round"/>
<path d="M409.842 334.471C408.408 332.887 406.706 332.024 404.431 331.607C403.224 333.422 400.214 334.708 396.696 334.708C393.31 334.708 390.4 333.518 389.107 331.814C386.67 332.293 384.906 333.229 383.458 334.944C380.615 338.312 381.996 343.363 385.815 343.631C387.448 343.748 388.656 343.675 389.617 343.496C392.675 342.936 393.208 341.309 396.761 341.245C396.953 341.243 397.146 341.245 397.338 341.252C400.73 341.376 401.199 343.161 405.047 343.342C405.809 343.377 406.702 343.35 407.781 343.235C411.59 342.827 412.797 337.732 409.842 334.469L409.842 334.471Z" fill="#F6D2A2" stroke="black" stroke-width="1.96391" stroke-miterlimit="10" stroke-linejoin="round"/>
<path d="M396.696 334.707C400.217 334.707 403.223 333.421 404.431 331.607C404.796 331.058 404.998 330.462 404.998 329.839C404.998 327.15 401.282 324.97 396.697 324.97C392.111 324.97 388.395 327.15 388.395 329.839C388.395 330.542 388.651 331.209 389.108 331.813C390.4 333.518 393.31 334.707 396.696 334.707H396.696Z" fill="black"/>
<path d="M237.803 306.763H80.7677C76.2849 306.763 72.6509 310.493 72.6509 315.093V408.646C72.6509 413.247 76.2849 416.976 80.7677 416.976H237.803C242.286 416.976 245.92 413.247 245.92 408.646V315.093C245.92 310.493 242.286 306.763 237.803 306.763Z" fill="#455A64"/>
<path d="M179.144 363.994C181.672 353.58 175.495 343.035 165.348 340.44C155.2 337.846 144.924 344.185 142.396 354.598C139.867 365.012 146.044 375.558 156.192 378.152C166.34 380.747 176.616 374.408 179.144 363.994Z" fill="#72CDDC"/>
<path d="M156.202 364.954V353.481C156.202 353.357 156.234 353.235 156.293 353.126C156.353 353.018 156.439 352.928 156.543 352.864C156.646 352.8 156.765 352.765 156.886 352.761C157.007 352.758 157.127 352.787 157.234 352.846L167.227 358.625C167.337 358.689 167.428 358.781 167.491 358.893C167.554 359.004 167.588 359.131 167.588 359.26C167.588 359.389 167.554 359.516 167.491 359.627C167.428 359.739 167.337 359.831 167.227 359.895L157.244 365.589C157.136 365.647 157.016 365.676 156.895 365.672C156.773 365.669 156.655 365.634 156.55 365.57C156.446 365.507 156.359 365.416 156.298 365.309C156.237 365.201 156.204 365.079 156.202 364.954V364.954Z" fill="white"/>
<path d="M222.994 403.459H88.7925V404.084H222.994V403.459Z" fill="white"/>
<path d="M130.624 402.783H88.6885V404.455H130.624V402.783Z" fill="#72CDDC"/>
<path d="M131.996 403.777C131.996 404.196 131.875 404.605 131.648 404.953C131.421 405.302 131.099 405.573 130.722 405.733C130.345 405.893 129.931 405.935 129.53 405.854C129.13 405.772 128.763 405.57 128.474 405.274C128.186 404.978 127.989 404.601 127.91 404.19C127.83 403.78 127.871 403.354 128.027 402.967C128.183 402.581 128.448 402.25 128.787 402.017C129.126 401.785 129.525 401.661 129.933 401.661C130.48 401.661 131.005 401.884 131.391 402.281C131.778 402.678 131.996 403.216 131.996 403.777Z" fill="#72CDDC"/>
<path d="M233.183 403.301H232.574V401.491H234.338V402.115H233.183V403.301Z" fill="white"/>
<path d="M234.338 405.661H232.574V403.851H233.183V405.036H234.338V405.661Z" fill="white"/>
<path d="M237.144 405.661H235.38V405.036H236.535V403.851H237.144V405.661Z" fill="white"/>
<path d="M237.144 403.301H236.535V402.115H235.38V401.491H237.144V403.301Z" fill="white"/>
<path d="M265.042 385.816C265.042 386.488 264.848 387.145 264.484 387.703C264.12 388.262 263.603 388.698 262.998 388.955C262.393 389.212 261.727 389.279 261.085 389.148C260.443 389.017 259.853 388.693 259.39 388.218C258.927 387.743 258.612 387.138 258.484 386.479C258.356 385.82 258.422 385.137 258.672 384.516C258.923 383.895 259.347 383.364 259.892 382.991C260.436 382.618 261.076 382.418 261.731 382.418C262.609 382.418 263.451 382.776 264.072 383.414C264.693 384.051 265.042 384.915 265.042 385.816Z" fill="#263238"/>
<path d="M201.778 451.226C201.778 451.898 201.583 452.555 201.22 453.114C200.856 453.672 200.339 454.108 199.734 454.365C199.129 454.622 198.463 454.689 197.821 454.558C197.179 454.427 196.589 454.104 196.126 453.629C195.663 453.153 195.348 452.548 195.22 451.889C195.092 451.23 195.158 450.547 195.408 449.926C195.659 449.305 196.083 448.775 196.628 448.401C197.172 448.028 197.812 447.829 198.467 447.829C199.345 447.829 200.187 448.187 200.808 448.824C201.429 449.461 201.778 450.325 201.778 451.226Z" fill="#263238"/>
<path d="M242.022 438.779H175.602C170.239 438.773 165.097 436.585 161.303 432.694C157.51 428.803 155.375 423.527 155.367 418.023V416.965H156.398V418.023C156.406 423.246 158.432 428.253 162.032 431.945C165.632 435.638 170.512 437.715 175.602 437.72H242.022C247.111 437.715 251.989 435.637 255.588 431.945C259.186 428.252 261.21 423.245 261.216 418.023V384.566H262.247V418.023C262.241 423.526 260.109 428.802 256.317 432.693C252.525 436.584 247.384 438.773 242.022 438.779Z" fill="#263238"/>
<path d="M198.983 437.858H197.952V450.464H198.983V437.858Z" fill="#263238"/>
<path d="M228.313 310.794C230.958 310.794 233.102 308.594 233.102 305.879C233.102 303.164 230.958 300.964 228.313 300.964C225.667 300.964 223.523 303.164 223.523 305.879C223.523 308.594 225.667 310.794 228.313 310.794Z" fill="#72CDDC"/>
<path d="M228.528 304.623C226.439 304.661 224.366 304.233 222.454 303.367C220.542 302.502 218.837 301.22 217.456 299.611C207.163 287.999 209.585 260.399 209.693 259.226C209.693 247.835 206.504 239.054 200.275 233.2C190.252 223.853 175.627 225.178 175.479 225.192L117.466 224.695V223.314L175.399 223.825C175.95 223.825 190.696 222.445 201.163 232.109C207.742 238.24 211.078 247.297 211.078 259.24C211.078 259.585 208.603 287.475 218.492 298.63C219.749 300.095 221.301 301.261 223.041 302.048C224.781 302.834 226.667 303.223 228.569 303.187L228.528 304.623Z" fill="#72CDDC"/>
<path d="M159.24 163.172H111.411C105.608 163.172 100.904 168 100.904 173.955V223.038C100.904 228.994 105.608 233.822 111.411 233.822H159.24C165.043 233.822 169.747 228.994 169.747 223.038V173.955C169.747 168 165.043 163.172 159.24 163.172Z" fill="#72CDDC"/>
<path d="M138.643 199.112C140.324 198.35 141.751 197.099 142.748 195.514C143.745 193.929 144.268 192.079 144.253 190.193C144.34 188.953 144.178 187.709 143.777 186.536C143.376 185.364 142.745 184.288 141.922 183.376C141.099 182.465 140.102 181.736 138.994 181.236C137.885 180.736 136.688 180.475 135.477 180.469C134.267 180.464 133.067 180.713 131.954 181.203C130.841 181.693 129.838 182.412 129.007 183.316C128.176 184.22 127.535 185.289 127.124 186.458C126.712 187.627 126.539 188.87 126.615 190.11C126.585 192.012 127.103 193.881 128.103 195.482C129.104 197.083 130.542 198.346 132.239 199.112C118.677 201.211 119.283 216.343 119.283 216.343L151.357 216.495C151.357 216.495 152.097 201.197 138.643 199.112Z" fill="white"/>
</svg>
